<?xml version="1.0" encoding="UTF-8" standalone="no"?> 
<svg xmlns="http://www.w3.org/2000/svg" xmlns:xlink="http://www.w3.org/1999/xlink">
<symbol id="ballons" viewBox="0 0 72 72">
<defs>
<style>.cls-1{fill:url(#linear-gradient);}.cls-2{fill:url(#linear-gradient-2);}.cls-3{fill:url(#linear-gradient-3);}.cls-4{fill:url(#linear-gradient-4);}.cls-5{fill:url(#linear-gradient-5);}.cls-6{fill:url(#linear-gradient-6);}.cls-11,.cls-7{opacity:0.5;}.cls-7{fill:url(#linear-gradient-7);}.cls-8{fill:url(#linear-gradient-8);}.cls-9{fill:url(#linear-gradient-9);}.cls-10{fill:url(#linear-gradient-10);}.cls-11{fill:url(#linear-gradient-11);}</style>
<linearGradient id="linear-gradient" x1="52" y1="36.89" x2="52" y2="62.298" gradientUnits="userSpaceOnUse">
<stop offset="0" stop-color="#edf1f2"/>
<stop offset="1" stop-color="#c6ced0"/>
</linearGradient>
<linearGradient id="linear-gradient-2" x1="52" y1="45.571" x2="52" y2="50.19" gradientUnits="userSpaceOnUse">
<stop offset="0" stop-color="#db686b"/><stop offset="1" stop-color="#c23542"/></linearGradient>
<linearGradient id="linear-gradient-3" y1="13.347" x2="52" y2="44.544" xlink:href="#linear-gradient-2"/>
<linearGradient id="linear-gradient-4" x1="20" y1="36.89" x2="20" y2="62.298" xlink:href="#linear-gradient"/>
<linearGradient id="linear-gradient-5" x1="20" y1="45.571" x2="20" y2="50.19" gradientUnits="userSpaceOnUse">
<stop offset="0" stop-color="#fed200"/><stop offset="1" stop-color="#f59815"/></linearGradient><linearGradient id="linear-gradient-6" y1="13.347" x2="20" y2="44.544" xlink:href="#linear-gradient-5"/><linearGradient id="linear-gradient-7" x1="13.794" y1="16.143" x2="13.794" y2="24.632" gradientUnits="userSpaceOnUse"><stop offset="0" stop-color="#fff"/><stop offset="1" stop-color="#edf1f2"/></linearGradient><linearGradient id="linear-gradient-8" x1="36" y1="26.148" x2="36" y2="64.928" xlink:href="#linear-gradient"/><linearGradient id="linear-gradient-9" x1="36" y1="43.737" x2="36" y2="48.841" gradientUnits="userSpaceOnUse"><stop offset="0" stop-color="#6fc6fc"/><stop offset="1" stop-color="#50a7f6"/></linearGradient><linearGradient id="linear-gradient-10" x1="36" y1="6.073" x2="36" y2="44.926" xlink:href="#linear-gradient-9"/><linearGradient id="linear-gradient-11" x1="28.487" y1="9.179" x2="28.487" y2="18.987" xlink:href="#linear-gradient-7"/></defs><title>Balloon</title><g id="Balloon"><rect class="cls-1" x="51" y="44" width="2" height="19" rx="1"/><path class="cls-2" d="M51.134,44.5l-2.5,4.333a1,1,0,0,0,.866,1.5h5a1,1,0,0,0,.866-1.5l-2.5-4.333A1,1,0,0,0,51.134,44.5Z"/><path class="cls-3" d="M66,27a14,14,0,0,0-28,0c0,7.732,6.268,19,14,19S66,34.732,66,27Z"/><rect class="cls-4" x="19" y="44" width="2" height="19" rx="1"/><path class="cls-5" d="M19.134,44.5l-2.5,4.333a1,1,0,0,0,.866,1.5h5a1,1,0,0,0,.866-1.5l-2.5-4.333A1,1,0,0,0,19.134,44.5Z"/><path class="cls-6" d="M34,27A14,14,0,0,0,6,27c0,7.732,6.268,19,14,19S34,34.732,34,27Z"/><path class="cls-7" d="M11.223,24.865a1.5,1.5,0,0,1-1.385-2.074,10.922,10.922,0,0,1,5.952-5.954,1.5,1.5,0,1,1,1.148,2.772,7.949,7.949,0,0,0-4.329,4.329A1.5,1.5,0,0,1,11.223,24.865Z"/><rect class="cls-8" x="35" y="37" width="2" height="29" rx="1"/><path class="cls-9" d="M35.134,42.5l-2.887,5a1,1,0,0,0,.866,1.5h5.774a1,1,0,0,0,.866-1.5l-2.887-5A1,1,0,0,0,35.134,42.5Z"/><path class="cls-10" d="M52,22a16,16,0,0,0-32,0c0,8.837,7.163,23,16,23S52,30.837,52,22Z"/><path class="cls-11" d="M25.374,19.1a1.5,1.5,0,0,1-1.385-2.075A12.913,12.913,0,0,1,31.025,9.99a1.5,1.5,0,0,1,1.149,2.771,9.937,9.937,0,0,0-5.413,5.412A1.5,1.5,0,0,1,25.374,19.1Z"/></g>
<symbol>
</svg>